PathFileType	4	(X/Y/Z)	C:/Users/beibeiliu/ov580/test_trc/User3\sequence.39_training_dense_right.trc
DataRate	CameraRate	NumFrames	NumMarkers	Units	OrigDataRate	OrigDataStartFrame	OrigNumFrames
120	120	22	19	mm	120	206	235
Frame#	Time	ThumbCMC			ThumbMCP			ThumbIP			ThumbTip			IndexMCP			IndexPIP			IndexTip			MiddleMCP			MiddlePIP			MiddleTip			RingMCP			RingPIP			RingTip			PinkyMCP			PinkyPIP			PinkyTip			BackHand1			BackHand2			BackHand3	
		X0	Y0	Z0	X1	Y1	Z1	X2	Y2	Z2	X3	Y3	Z3	X4	Y4	Z4	X5	Y5	Z5	X6	Y6	Z6	X7	Y7	Z7	X8	Y8	Z8	X9	Y9	Z9	X10	Y10	Z10	X11	Y11	Z11	X12	Y12	Z12	X13	Y13	Z13	X14	Y14	Z14	X15	Y15	Z15	X16	Y16	Z16	X17	Y17	Z17	X18	Y18	Z18	
205	1.70833	131.444	-25.7766	40.5429	125.711	-13.7208	10.2801	117.727	-12.131	-17.7635	112.005	-7.86393	-39.399	121.842	-36.9476	-34.6796	89.5422	-30.2173	-33.938	97.1697	-31.9621	2.84621	111.424	-57.128	-34.5622	81.3163	-51.6942	-20.9279	99.9289	-55.1607	14.1319	108.769	-75.1288	-26.5776	79.7921	-65.512	-13.5493	93.6422	-57.9186	13.5311	110.459	-91.9603	-21.4039	84.4144	-86.2844	-25.5449	70.3842	-72.116	-0.219	150.231	-82.2193	11.4786	151.066	-84.3099	42.7219	154.181	-51.8538	27.7409	
206	1.71667	129.383	-24.1843	37.4727	121.53	-11.1135	10.7409	115.897	-16.1227	-20.1394	107.985	-13.2297	-40.3417	120.633	-34.5545	-34.5687	88.3395	-34.2524	-34.5251	94.2706	-35.7472	1.86465	111.821	-57.6148	-32.5587	80.377	-50.624	-20.7217	98.1274	-49.9749	14.8133	102.901	-76.1582	-28.0397	78.5053	-67.3128	-11.7218	92.0918	-61.0206	15.2353	106.517	-96.893	-20.7366	80.3833	-83.2364	-19.8944	75.1912	-68.0854	6.15448	149.214	-80.2058	11.8843	149.776	-86.6568	46.3361	152.072	-49.6715	28.3243	
207	1.725	128.182	-27.7281	40.1392	123.525	-12.9402	11.9718	117.337	-17.3319	-23.7782	111.534	-19.6928	-41.2818	123.312	-40.2681	-31.7542	90.9803	-32.4712	-30.5601	96.8341	-33.9343	2.88115	110.217	-57.2424	-33.0683	83.4321	-48.3339	-18.5906	99.4462	-56.2493	16.0475	109.687	-77.1366	-26.0048	82.6282	-65.4967	-21.6892	86.435	-56.5089	10.4639	110.504	-92.1512	-19.0909	82.2476	-82.833	-17.2065	86.3801	-75.4914	8.69439	147.613	-87.3392	17.9775	144.672	-82.334	51.3966	151.086	-50.2683	34.4401	
208	1.73333	130.999	-23.1308	41.2135	124.8	-10.2886	9.54082	117.385	-14.953	-24.2037	104.257	-36.1188	-35.6696	117.831	-31.6967	-30.8938	87.5866	-30.6615	-19.7958	100.73	-36.7682	10.7173	117.865	-54.5007	-33.9657	83.9259	-48.3964	-22.7698	101.446	-46.7055	12.8744	110.317	-71.7756	-30.4319	83.0246	-65.4861	-19.428	92.2809	-60.9166	11.7737	113.214	-91.5706	-21.3645	86.0223	-83.1283	-26.0745	73.5863	-67.4863	-5.40029	149.994	-82.238	14.6089	151.503	-81.9367	44.8226	153.893	-48.8725	32.1848	
209	1.74167	130.55	-23.3906	41.695	128.031	-9.07445	10.432	120.085	-14.4608	-20.2975	108.935	-33.9474	-36.2758	118.299	-32.8998	-30.9652	89.3518	-27.2212	-18.6672	102.957	-35.0137	10.6817	118.486	-53.6815	-35.3277	87.4135	-46.986	-29.0464	99.7376	-47.3387	11.1253	112.634	-73.164	-26.927	84.0049	-65.5838	-19.082	93.8414	-52.7129	11.3038	110.739	-93.9533	-18.2886	86.5885	-83.8578	-25.0729	73.1912	-64.6263	-7.84591	147.816	-78.8387	18.2177	147.109	-83.2736	48.8433	155.207	-46.4108	32.5525	
210	1.75	132.255	-19.237	42.121	132.805	-2.69152	10.2193	120.596	-15.5741	-18.7488	108.005	-39.5452	-18.3053	124.824	-41.0687	-38.8399	92.5613	-38.9038	-42.4936	88.2572	-31.4681	-13.618	115.396	-54.9286	-37.8262	82.4914	-56.5109	-28.8697	95.3333	-52.4951	9.3513	112.117	-79.6008	-22.9484	81.7625	-72.0471	-15.8821	93.5817	-56.9869	13.2943	118.527	-92.7918	-15.8016	89.1186	-86.8422	-19.7505	86.2826	-76.3589	9.07762	151.304	-78.244	15.7218	151.403	-76.214	49.1209	152.58	-42.7574	31.1915	
211	1.75833	133.462	-17.2369	40.8687	130.61	-2.5673	14.2438	118.959	-13.0682	-14.2157	106.427	-34.928	-21.8701	129.634	-38.9602	-39.441	97.8564	-38.675	-50.6137	89.0568	-32.3184	-21.7067	115.376	-56.8982	-37.1392	84.5696	-51.4516	-33.6826	94.5393	-55.181	8.12558	112.878	-76.0045	-30.4128	82.8977	-69.9476	-22.4629	89.2684	-57.1359	6.64672	120.517	-91.1084	-17.4507	95.6035	-83.8078	-26.1236	84.7831	-78.5389	4.89914	150.93	-75.7574	14.7078	152.608	-73.7974	48.0893	155.549	-43.3548	29.4335	
212	1.76667	133.663	-15.2288	39.7034	131.177	-6.10664	5.36322	118.701	-16.9563	-21.8642	105.885	-40.9723	-23.2609	127.945	-44.2665	-36.8254	95.9621	-39.9864	-49.4413	90.2935	-34.0694	-15.6057	112.331	-59.4246	-37.0849	81.8309	-58.5572	-26.1627	95.1933	-56.7364	10.7214	112.978	-84.407	-24.831	83.8055	-76.4072	-23.7271	88.0784	-62.6095	8.42641	120.083	-95.3455	-14.8181	94.7873	-88.3705	-23.8275	83.8882	-81.9162	3.48019	152.332	-77.0921	21.3688	156.039	-72.2738	49.9957	154.794	-40.723	27.8696	
213	1.775	132.693	-17.8374	33.0246	131.07	-3.72449	7.73017	120.796	-11.8992	-22.3623	106.163	-34.099	-33.9557	123.141	-47.0742	-41.2061	92.6047	-44.464	-50.2428	84.9689	-46.3051	-15.2736	112.176	-69.9818	-33.4946	79.4168	-67.0332	-26.1962	92.3559	-59.6514	11.1983	113.887	-86.6639	-24.8768	84.3333	-83.772	-22.1425	88.087	-66.6231	9.95793	121.157	-100.56	-12.4932	93.3492	-94.2329	-19.5897	84.8501	-90.7467	8.60942	152.277	-78.7571	16.3853	154.681	-70.7866	46.9458	152.371	-40.5454	24.8053	
214	1.78333	132.49	-19.9186	39.8949	129.545	-10.7558	10.2025	118.98	-16.5658	-16.1038	105.274	-42.5812	-26.5298	121.419	-42.4822	-38.9604	91.6367	-40.4739	-43.2094	89.771	-33.9699	-7.65991	115.653	-60.7077	-35.1773	80.202	-60.0734	-24.5646	92.4933	-59.0988	8.53541	112.629	-79.0072	-26.2817	81.4106	-73.9973	-19.8663	89.3577	-63.912	10.5439	118.628	-94.3346	-16.1176	89.3092	-90.7035	-22.6689	86.7459	-80.4546	5.05435	150.517	-82.2349	18.5742	151.628	-81.597	45.9446	154.216	-49.6246	26.1685	
215	1.79167	133.074	-28.9439	40.1872	130.429	-8.24904	15.772	120.637	-7.77235	-14.1331	104.239	-31.3823	-29.4208	124.196	-41.9527	-36.1101	94.1528	-38.6993	-44.4842	88.6168	-33.824	-8.03915	111.403	-55.5619	-36.6676	79.4182	-51.7422	-27.8515	87.8014	-58.1765	6.52179	108.209	-79.3676	-30.5608	79.9162	-71.3305	-25.4265	86.1758	-61.7985	7.20081	114.906	-94.8456	-19.015	94.1846	-87.3526	-31.6437	70.3909	-81.7309	-16.5629	147.759	-84.4061	19.2625	149.682	-88.1123	44.6596	153.002	-50.747	30.5175	
216	1.8	131.698	-22.6753	39.9231	129.84	-10.6582	7.53576	119.906	-21.0671	-22.6467	106.187	-38.6585	-30.855	124.96	-47.5562	-36.0337	92.1192	-45.5024	-41.7212	91.7251	-38.2025	-6.38837	112.213	-62.4702	-34.4239	82.3284	-62.3339	-27.7937	90.9133	-54.6526	10.6044	110.186	-84.2562	-24.447	80.638	-76.7425	-20.4563	84.2424	-65.6997	8.88511	102.749	-99.8165	-8.24987	80.2657	-86.5769	-3.29586	92.9837	-70.0924	18.8688	148.028	-82.0406	19.9439	149.471	-79.9914	54.9832	153.771	-48.3631	32.5938	
217	1.80833	136.162	-29.0125	40.112	131.321	-9.98794	13.5859	118.016	-13.5237	-13.4616	101.658	-27.7665	-27.1335	127.103	-45.4222	-35.2643	98.6849	-42.7069	-53.0441	85.6581	-31.4985	-24.3263	104.838	-57.332	-34.9498	75.1486	-51.0247	-24.6676	91.6401	-54.7622	14.4118	100.705	-76.5243	-26.77	73.6878	-67.8735	-17.0696	88.8384	-59.4549	13.921	107.075	-96.6155	-18.3287	80.4444	-85.433	-24.6092	65.0353	-78.1253	0.510898	144.128	-88.1891	10.6585	151.561	-90.5775	43.1424	152.435	-51.8197	24.4537	
218	1.81667	132.323	-23.3443	40.1171	128.782	-10.9996	8.30228	116.538	-17.4706	-19.274	104.732	-23.4653	-36.7296	121.691	-38.5008	-42.4415	92.5239	-37.4957	-47.973	87.6057	-37.2905	-12.6057	110.321	-56.8938	-37.0714	77.7573	-57.5198	-27.9	90.1625	-54.4545	8.80211	102.942	-78.7874	-27.1823	76.063	-72.6529	-13.2934	89.5228	-64.8217	15.3182	110.561	-95.6446	-20.7084	84.9488	-87.0987	-23.9571	81.3203	-79.5862	7.84972	148.25	-82.537	12.9437	152.021	-84.8344	42.1986	151.286	-49.5802	28.5168	
219	1.825	129.496	-26.1086	39.3593	123.185	-11.4369	9.90986	114.266	-16.8032	-21.4481	105.666	-15.7546	-35.1816	122.652	-38.6606	-37.8922	88.6357	-31.7796	-37.6372	90.0222	-34.4355	-6.85097	111.576	-54.6352	-36.9838	81.2785	-52.41	-26.9603	94.88	-56.3471	10.7971	107.473	-77.3208	-29.1467	79.9049	-71.0263	-19.1695	87.7421	-60.3059	12.4736	111.84	-93.5546	-20.2402	83.4091	-88.8323	-18.9249	86.4522	-79.6414	14.1587	150.717	-83.5431	13.8991	151.898	-84.8584	47.7689	152.287	-48.7682	30.636	
220	1.83333	130.684	-25.8194	35.816	118.528	-16.011	4.33047	110.931	-13.9235	-28.4206	99.666	-34.0153	-41.7397	118.186	-34.4752	-32.9274	86.9157	-28.8853	-18.6189	102.434	-31.5453	8.5317	109.476	-58.3653	-30.9836	81.9376	-49.1053	-11.7243	105.311	-53.4954	18.2206	103.262	-75.4461	-25.5237	80.36	-60.9262	-14.7844	92.7502	-56.58	18.5975	108.398	-91.9071	-23.2533	85.362	-85.5171	-28.2218	70.3799	-68.4147	-3.91637	149.292	-82.2809	15.4328	148.876	-85.0889	43.6648	154.841	-50.0535	26.3885	
221	1.84167	133.206	-26.5001	30.6091	121.536	-17.3621	3.09582	110.589	-14.1723	-22.8429	97.6856	-33.4809	-36.3418	113.019	-42.7349	-32.2252	84.7898	-33.2177	-16.4164	102.514	-33.418	10.3304	103.545	-57.3225	-30.4177	79.4708	-46.2896	-10.5421	106.658	-50.017	20.0436	99.1334	-76.3262	-19.9668	77.0373	-63.8095	-1.40762	97.6052	-56.9931	23.0566	107.418	-92.6839	-14.7064	79.4296	-86.0596	-21.3684	72.0048	-70.6074	1.76149	144.322	-84.0654	13.2032	147.318	-85.1064	43.8521	156.054	-52.7984	24.9876	
222	1.85	132.856	-23.2847	38.884	122.767	-11.8802	13.3114	114.577	-2.55365	-18.6984	106.061	3.68644	-30.3316	112.981	-26.2706	-30.6689	83.4532	-22.8499	-18.8232	99.3148	-34.9533	11.872	106.274	-46.6731	-33.2253	77.6122	-41.9586	-18.8669	97.6304	-51.2445	17.3358	99.5377	-69.1704	-24.1951	74.9306	-56.7933	-6.30133	94.1282	-56.89	20.1529	99.3689	-91.4415	-17.9358	76.31	-77.3992	-18.8181	76.3552	-60.0287	5.89238	143.175	-81.6325	9.0017	148.746	-87.2987	41.2493	155.37	-52.706	25.2381	
223	1.85833	135.59	-22.0277	44.2984	128.431	-9.14961	16.682	117.126	-4.09802	-9.2713	107.931	1.18104	-26.88	113.002	-29.9825	-31.3797	78.6831	-26.1983	-26.7826	86.6289	-27.0729	4.10864	103.444	-48.0857	-32.0247	72.1042	-43.1495	-20.3603	87.8501	-51.6854	15.3455	96.0353	-71.6034	-24.4501	69.2816	-63.588	-5.7767	89.4494	-58.3454	20.7881	98.0057	-85.9924	-21.6887	75.5826	-74.4887	-14.3349	76.6413	-75.8253	15.6347	143.947	-81.379	10.2187	150.659	-83.9588	37.0076	152.321	-51.9583	27.5447	
224	1.86667	133.3	-19.187	40.4714	125.926	-4.28481	13.9572	116.325	2.78755	-11.2775	100.297	-0.4126	-35.2452	103.216	-38.9448	-34.6754	74.8301	-32.0528	-28.801	81.8636	-28.5604	3.04003	99.7038	-54.5095	-31.3864	67.9891	-48.7643	-15.0972	89.2306	-49.7853	18.3485	97.2559	-77.0025	-21.9481	68.8729	-68.1327	-8.10008	86.9052	-55.0335	17.5784	103.38	-90.9868	-18.5409	79.377	-85.9341	-19.0957	77.0991	-75.5597	13.3969	145.125	-79.984	10.9132	152.458	-75.6356	44.1299	150.579	-46.1566	26.6678	
225	1.875	136.432	-22.8046	35.432	129.35	-3.435	11.0582	112.919	-3.63619	-17.8281	97.7001	-9.50151	-29.366	107.06	-37.9709	-33.1366	75.7039	-31.0872	-28.9841	86.8497	-32.6506	6.62874	96.8437	-58.3859	-31.0255	67.5734	-46.9362	-14.9697	88.4832	-52.1378	17.6032	96.7507	-78.2359	-24.2191	68.2726	-71.7723	-18.6693	78.8585	-56.9672	13.2875	103.794	-90.7304	-14.6627	77.5736	-81.126	-20.2638	71.4191	-76.8211	11.2097	138.89	-83.6881	12.958	150.147	-81.1419	42.8933	150.509	-52.2909	26.8189	
226	1.88333	136.049	-19.8532	38.296	129.44	-6.91655	15.6892	114.661	-7.08517	-13.6654	97.005	-21.3679	-23.4768	106.568	-35.0643	-33.474	74.8137	-28.6771	-27.4461	85.2696	-26.1624	5.43381	95.734	-51.7785	-32.9891	67.7279	-47.7785	-16.8758	86.9141	-51.2057	17.6482	96.7624	-76.8086	-23.2831	67.977	-64.0713	-14.7696	82.0308	-55.5779	16.4762	101.221	-86.8823	-18.9686	76.0905	-79.8794	-20.0947	74.1058	-73.0332	14.141	141.107	-78.9817	12.8245	148.722	-82.2773	40.1345	152.666	-46.7026	26.8722	
